# AST/ASF file generated using VICON BodyLanguage
# -----------------------------------------------
:version 1.10
:name VICON
:units
  mass 1.0
  length 0.45
  angle deg
:documentation
   .ast/.asf automatically generated from VICON data using
   VICON BodyBuilder and BodyLanguage model FoxedUp or BRILLIANT.MOD
:root
   order TX TY TZ RX RY RZ
   axis XYZ
   position 0 0 0  
   orientation 0 0 0 
:bonedata
  begin
     id 1 
     name lhipjoint
     direction 0.623415 -0.642378 0.445763 
     length 2.49859 
     axis 0 0 0  XYZ
  end
  begin
     id 2 
     name lfemur
     direction 0.34202 -0.939693 0  
     length 6.69689  
     axis 0 0 20  XYZ
    dof rx ry rz
    limits (-160.0 20.0)
           (-70.0 70.0)
           (-60.0 70.0)
  end
  begin
     id 3 
     name ltibia
     direction 0.34202 -0.939693 0   
     length 7.37574   
     axis 0 0 20   XYZ
    dof rx
    limits (-10.0 170.0)
  end
  begin
     id 4 
     name lfoot
     direction 0.084323 -0.231675 0.969132   
     length 2.09111   
     axis -90 7.62852e-016 20   XYZ
    dof rx rz
    limits (-45.0 90.0)
           (-70.0 20.0)
  end
  begin
     id 5 
     name ltoes
     direction 1.5357e-011 -4.21957e-011 1   
     length 1.04989   
     axis -90 7.62852e-016 20   XYZ
    dof rx
    limits (-90.0 20.0)
  end
  begin
     id 6 
     name rhipjoint
     direction -0.605402 -0.653903 0.45376   
     length 2.45455  
     axis 0 0 0  XYZ 
  end
  begin
     id 7 
     name rfemur
     direction -0.34202 -0.939693 0   
     length 6.64523   
     axis 0 0 -20   XYZ
    dof rx ry rz
    limits (-160.0 20.0)
           (-70.0 70.0)
           (-70.0 60.0)
  end
  begin
     id 8 
     name rtibia
     direction -0.34202 -0.939693 0   
     length 7.3339   
     axis 0 0 -20   XYZ
    dof rx
    limits (-10.0 170.0)
 end
 begin
     id 9 
     name rfoot
     direction -0.120854 -0.332043 0.93549   
     length 2.23135  
     axis -90 -7.62852e-016 -20   XYZ
    dof rx rz
    limits (-45.0 90.0)
           (-20.0 70.0)
  end
  begin
     id 10 
     name rtoes
     direction -1.53563e-011 -4.21914e-011 1   
     length 1.10614   
     axis -90 -7.62852e-016 -20   XYZ
    dof rx
    limits (-90.0 20.0)
  end
  begin
     id 11 
     name lowerback
     direction 0.0319682 0.998615 -0.0417941   
     length 2.02718   
     axis 0 0 0   XYZ
    dof rx ry rz
    limits (-20.0 45.0)
           (-30.0 30.0)
           (-30.0 30.0)
  end
  begin
     id 12 
     name upperback
     direction 7.63181e-005 0.995808 0.0914691   
     length 1.97539   
     axis 0 0 0   XYZ
    dof rx ry rz
    limits (-20.0 45.0)
           (-30.0 30.0)
           (-30.0 30.0)
  end
  begin
     id 13 
     name thorax
     direction -0.016423 0.993627 0.111514   
     length 2.00349   
     axis 0 0 0   XYZ
    dof rx ry rz
    limits (-20.0 45.0)
           (-30.0 30.0)
           (-30.0 30.0)
  end
  begin
     id 14 
     name lowerneck
     direction -0.174763 0.981668 -0.0760716   
     length 1.71436   
     axis 0 0 0   XYZ
    dof rx ry rz
    limits (-20.0 45.0)
           (-30.0 30.0)
           (-30.0 30.0)
  end
  begin
     id 15 
     name upperneck
     direction 0.345458 0.934587 -0.0848868   
     length 1.72805   
     axis 0 0 0   XYZ
    dof rx ry rz
    limits (-20.0 45.0)
           (-30.0 30.0)
           (-30.0 30.0)
  end
  begin
     id 16
     name head
     direction 0.13001 0.989848 -0.0574291  
     length 1.767  
     axis 0 0 0   XYZ
    dof rx ry rz
    limits (-20.0 45.0)
           (-30.0 30.0)
           (-30.0 30.0)
  end
  begin
     id 17 
     name lclavicle
     direction 0.952951 0.290122 0.0878234  
     length 3.54654  
     axis 0 0 0   XYZ
    dof ry rz
    limits (-20.0 10.0)
           (0.0 20.0)
  end
  begin
     id 18 
     name lhumerus
     direction 1 -4.48957e-011 -4.56525e-028   
     length 5.19807   
     axis 180 -30 -90   XYZ
    dof rx ry rz
    limits (-60.0 90.0)
           (-90.0 90.0)
           (-90.0 90.0)
  end
  begin
     id 19
     name lradius
     direction 1 -4.48979e-011 -2.0317e-027   
     length 3.0937   
     axis 180 -30 -90   XYZ
    dof rx
    limits (-10.0 170.0)
  end
  begin
     id 20
     name lwrist
     direction 1 -4.48953e-011 -3.05809e-027   
     length 1.54685   
     axis 8.48514e-016 90 90   XYZ
    dof ry
    limits (-180.0 0.0)
 end
  begin
     id 21 
     name lhand
     direction 1 -4.48952e-011 -6.11639e-027   
     length 0.672632   
     axis 3.9013e-015 90 90   XYZ
    dof rx rz
    limits (-90.0 90.0)
           (-45.0 45.0)
  end
  begin
     id 22 
     name lfingers
     direction 1 -4.48925e-011 -1.22426e-026   
     length 0.542293   
     axis 7.80276e-015 90 90   XYZ
    dof rx
    limits (0.0 90.0)
  end
  begin
     id 23
     name lthumb
     direction 0.707107 -6.3486e-011 0.707107   
     length 0.778628   
     axis -90 45 5.37419e-014   XYZ
    dof rx rz
    limits (-45.0 45.0)
           (-45.0 45.0)
  end
  begin
     id 24 
     name rclavicle
     direction -0.960732 0.273675 -0.0457849   
     length 3.52079  
     axis 0 0 0   XYZ 
    dof ry rz
    limits (-10.0 20.0)
           (-20.0 0.0)
  end
  begin
     id 25 
     name rhumerus
     direction -1 -4.48976e-011 -1.63613e-027  
     length 5.45222   
     axis 180 30 90   XYZ
    dof rx ry rz
    limits (-90.0 60.0)
           (-90.0 90.0)
           (-90.0 90.0)
  end
  begin
     id 26 
     name rradius
     direction -1 -4.48957e-011 -7.00033e-028   
     length 3.01284   
     axis 180 30 90   XYZ
    dof rx
    limits (-10.0 170.0)
  end
  begin
     id 27 
     name rwrist
     direction -1 -4.48983e-011 -3.05543e-027   
     length 1.50642   
     axis 8.48514e-016 -90 -90   XYZ
    dof ry
    limits (-180.0 0.0)
  end
  begin
     id 28
     name rhand
     direction -1 -4.48984e-011 -6.11072e-027   
     length 0.622296   
     axis 3.9013e-015 -90 -90   XYZ
    dof rx rz
    limits (-90.0 90.0)
           (-45.0 45.0)
  end
  begin
     id 29
     name rfingers
     direction -1 -4.48865e-011 -1.22637e-026   
     length 0.501711   
     axis 7.80276e-015 -90 -90   XYZ
    dof rx
    limits (0.0 90.0)
  end
  begin
     id 30
     name rthumb
     direction -0.707107 -6.34932e-011 0.707107   
     length 0.72036   
     axis -90 -45 -5.37419e-014   XYZ
    dof rx rz
    limits (-45.0 45.0)
           (-45.0 45.0)
  end
:hierarchy
  begin
    root lhipjoint rhipjoint lowerback
    lhipjoint lfemur
    lfemur ltibia
    ltibia lfoot
    lfoot ltoes
    rhipjoint rfemur
    rfemur rtibia
    rtibia rfoot
    rfoot rtoes
    lowerback upperback
    upperback thorax
    thorax lowerneck lclavicle rclavicle
    lowerneck upperneck
    upperneck head
    lclavicle lhumerus
    lhumerus lradius
    lradius lwrist
    lwrist lhand lthumb
    lhand lfingers
    rclavicle rhumerus
    rhumerus rradius
    rradius rwrist
    rwrist rhand rthumb
    rhand rfingers
  end

#!OML:ASF H:\Not Pregnant\Project 1\Capture day 1\Session 1\non-pregnant.ASF
:FULLY-SPECIFIED
:DEGREES
136
root 6.88893 15.4458 38.6219 -167.619 -5.97552 -174.193
lowerback -2.85962 2.20995 9.20972
upperback -5.07462 2.56493 0.461946
thorax -3.29676 0.811101 -4.65435
lowerneck 15.4521 -7.86791 -31.956
upperneck -2.89663 -19.746 39.627
head 4.51498 -12.4471 19.6797
rclavicle 3.78333e-014 2.09469e-014
rhumerus -35.8148 -3.13794 -86.7368
rradius 19.2893
rwrist 35.1431
rhand -8.11209 -3.26043
rfingers 7.12502
rthumb 17.801 -32.4657
lclavicle 3.78333e-014 2.09469e-014
lhumerus -38.622 -8.4783 93.134
lradius 33.8964
lwrist 34.2244
lhand -20.9236 -14.5785
lfingers 7.12502
lthumb 5.44811 15.3315
rfemur -17.4756 3.44499 30.8871
rtibia 27.2116
rfoot -23.9333 7.18116
rtoes -8.57987
lfemur -45.4065 1.5558 -12.1655
ltibia 62.2277
lfoot -11.9222 -4.25034
ltoes -33.4044
137
root 6.87687 15.4446 38.5625 -167.554 -5.67699 -174.244
lowerback -2.84489 2.25215 9.16944
upperback -5.10712 2.62201 0.43153
thorax -3.33072 0.836771 -4.66391
lowerneck 15.4653 -7.86655 -31.9309
upperneck -2.85123 -19.7785 39.6251
head 4.53388 -12.4693 19.6692
rclavicle -2.87861e-014 -1.81849e-014
rhumerus -36.0692 -3.36494 -86.5492
rradius 19.2386
rwrist 35.2289
rhand -7.96074 -3.3316
rfingers 7.12502
rthumb 17.9466 -32.5236
lclavicle -2.87861e-014 -1.81849e-014
lhumerus -38.7824 -8.4992 93.0611
lradius 34.2794
lwrist 34.794
lhand -20.7219 -14.5387
lfingers 7.12502
lthumb 5.64288 15.3661
rfemur -17.2027 3.5816 30.7781
rtibia 27.0636
rfoot -24.0463 7.28401
rtoes -8.59338
lfemur -45.7458 1.59571 -12.2564
ltibia 61.5625
lfoot -12.0261 -4.1298
ltoes -33.6934
138
root 6.86431 15.4443 38.502 -167.488 -5.40208 -174.302
lowerback -2.83662 2.28713 9.12978
upperback -5.14624 2.66836 0.397332
thorax -3.36942 0.856324 -4.67783
lowerneck 15.502 -7.85447 -31.9155
upperneck -2.82759 -19.7984 39.632
head 4.53994 -12.4881 19.6714
rclavicle -5.2082e-015 -8.0469e-015
rhumerus -36.3404 -3.50679 -86.4178
rradius 19.2366
rwrist 35.1695
rhand -7.78836 -3.40711
rfingers 7.12502
rthumb 18.1125 -32.5838
lclavicle -5.2082e-015 -8.0469e-015
lhumerus -38.9589 -8.53109 92.9865
lradius 34.6507
lwrist 35.3882
lhand -20.4963 -14.4667
lfingers 7.12502
lthumb 5.86063 15.4322
rfemur -16.9113 3.71587 30.6608
rtibia 26.8901
rfoot -24.1477 7.36325
rtoes -8.6398
lfemur -46.064 1.58536 -12.3307
ltibia 60.7926
lfoot -12.1331 -3.92305
ltoes -33.8298
139
root 6.85076 15.4445 38.4392 -167.433 -5.13522 -174.37
lowerback -2.81216 2.31447 9.09085
upperback -5.19242 2.70638 0.35855
thorax -3.42574 0.870504 -4.69784
lowerneck 15.5494 -7.83337 -31.8991
upperneck -2.80338 -19.8047 39.6305
head 4.53675 -12.5002 19.6735
rclavicle 1.28942e-014 1.48219e-014
rhumerus -36.6365 -3.57351 -86.3366
rradius 19.2836
rwrist 35.0006
rhand -7.60584 -3.48987
rfingers 7.12502
rthumb 18.2881 -32.6502
lclavicle 1.28942e-014 1.48219e-014
lhumerus -39.1587 -8.55845 92.906
lradius 35.0188
lwrist 35.9826
lhand -20.2731 -14.3522
lfingers 7.12502
lthumb 6.07615 15.5406
rfemur -16.5833 3.86119 30.5294
rtibia 26.6871
rfoot -24.239 7.41525
rtoes -8.71569
lfemur -46.3334 1.52275 -12.3863
ltibia 59.9189
lfoot -12.2516 -3.65449
ltoes -33.8759
140
root 6.83665 15.4451 38.3752 -167.384 -4.86363 -174.439
lowerback -2.79205 2.34257 9.04997
upperback -5.22272 2.74543 0.321937
thorax -3.4629 0.887331 -4.71411
lowerneck 15.5706 -7.82408 -31.8881
upperneck -2.80794 -19.8077 39.6338
head 4.53122 -12.507 19.6754
rclavicle -1.17793e-014 4.94477e-015
rhumerus -36.9052 -3.56746 -86.3002
rradius 19.3623
rwrist 34.7346
rhand -7.41645 -3.57594
rfingers 7.12502
rthumb 18.4703 -32.7191
lclavicle -1.17793e-014 4.94477e-015
lhumerus -39.3286 -8.58553 92.8246
lradius 35.3646
lwrist 36.5321
lhand -20.0665 -14.206
lfingers 7.12502
lthumb 6.27559 15.6811
rfemur -16.23 4.03592 30.3949
rtibia 26.4533
rfoot -24.3085 7.44383
rtoes -8.82027
lfemur -46.5643 1.43418 -12.4111
ltibia 58.9432
lfoot -12.3752 -3.38548
ltoes -33.8911
141
root 6.82173 15.4463 38.309 -167.338 -4.60752 -174.516
lowerback -2.77206 2.36769 9.00928
upperback -5.25262 2.78065 0.27675
thorax -3.49977 0.902308 -4.73956
lowerneck 15.5937 -7.81605 -31.866
upperneck -2.82779 -19.8055 39.6389
head 4.51798 -12.5115 19.6766
rclavicle 3.13707e-016 5.54112e-015
rhumerus -37.1769 -3.51339 -86.3086
rradius 19.4615
rwrist 34.4245
rhand -7.28242 -3.64677
rfingers 7.12502
rthumb 18.5992 -32.7776
lclavicle 3.13707e-016 5.54112e-015
lhumerus -39.5 -8.6269 92.7388
lradius 35.691
lwrist 37.0096
lhand -19.8886 -14.0297
lfingers 7.12502
lthumb 6.44738 15.8522
rfemur -15.8511 4.21745 30.2495
rtibia 26.193
rfoot -24.3649 7.44808
rtoes -8.94488
lfemur -46.755 1.29602 -12.4084
ltibia 57.8713
lfoot -12.4973 -3.15865
ltoes -33.8158
142
root 6.80621 15.4476 38.2414 -167.297 -4.33995 -174.591
lowerback -2.75378 2.40225 8.96838
upperback -5.26929 2.82884 0.227935
thorax -3.51966 0.925524 -4.76827
lowerneck 15.5927 -7.81829 -31.8347
upperneck -2.86852 -19.8026 39.6542
head 4.50427 -12.5139 19.6778
rclavicle 2.22309e-014 8.74653e-015
rhumerus -37.4286 -3.42699 -86.3507
rradius 19.5716
rwrist 34.0965
rhand -7.24007 -3.67549
rfingers 7.12502
rthumb 18.6399 -32.8024
lclavicle 2.22309e-014 8.74653e-015
lhumerus -39.6394 -8.68427 92.6518
lradius 35.977
lwrist 37.3856
lhand -19.7297 -13.86
lfingers 7.12502
lthumb 6.60081 16.0172
rfemur -15.4548 4.43984 30.1021
rtibia 25.9126
rfoot -24.3977 7.42369
rtoes -9.09443
lfemur -46.9092 1.14565 -12.3714
ltibia 56.7137
lfoot -12.6125 -2.99144
ltoes -33.6851
143
root 6.78981 15.4489 38.1718 -167.258 -4.06135 -174.669
lowerback -2.73119 2.43636 8.92814
upperback -5.28185 2.87711 0.177252
thorax -3.53752 0.949177 -4.79945
lowerneck 15.5794 -7.81986 -31.8024
upperneck -2.91744 -19.7902 39.6707
head 4.48679 -12.5104 19.6801
rclavicle -1.97476e-014 -5.26779e-015
rhumerus -37.6714 -3.2897 -86.4307
rradius 19.7059
rwrist 33.7214
rhand -7.23043 -3.68121
rfingers 7.12502
rthumb 18.6492 -32.8073
lclavicle -1.97476e-014 -5.26779e-015
lhumerus -39.7586 -8.72645 92.5553
lradius 36.2162
lwrist 37.6533
lhand -19.5828 -13.7031
lfingers 7.12502
lthumb 6.74257 16.1695
rfemur -15.0431 4.68712 29.9469
rtibia 25.6195
rfoot -24.4165 7.38543
rtoes -9.25426
lfemur -47.027 0.969799 -12.3046
ltibia 55.4848
lfoot -12.7221 -2.85724
ltoes -33.5248
144
root 6.77304 15.45 38.1012 -167.216 -3.78672 -174.752
lowerback -2.72144 2.46697 8.88028
upperback -5.29858 2.9188 0.127663
thorax -3.55378 0.969478 -4.82488
lowerneck 15.5887 -7.80552 -31.7848
upperneck -2.98785 -19.7595 39.7009
head 4.45577 -12.5012 19.7007
rclavicle 4.74715e-015 -3.13086e-014
rhumerus -37.9214 -3.10797 -86.5405
rradius 19.8624
rwrist 33.3138
rhand -7.23061 -3.66707
rfingers 7.12502
rthumb 18.649 -32.7931
lclavicle 4.74715e-015 -3.13086e-014
lhumerus -39.881 -8.75028 92.4541
lradius 36.4088
lwrist 37.8156
lhand -19.4428 -13.5849
lfingers 7.12502
lthumb 6.87771 16.2833
rfemur -14.632 4.93366 29.7858
rtibia 25.3244
rfoot -24.4205 7.34801
rtoes -9.41313
lfemur -47.1281 0.77257 -12.2135
ltibia 54.1954
lfoot -12.8083 -2.75357
ltoes -33.3329
145
root 6.75565 15.4502 38.0291 -167.175 -3.49535 -174.829
lowerback -2.70918 2.49547 8.83201
upperback -5.30883 2.9581 0.0835013
thorax -3.56525 0.989319 -4.84442
lowerneck 15.5768 -7.78565 -31.7722
upperneck -3.04385 -19.7165 39.7267
head 4.42733 -12.4836 19.7213
rclavicle -1.15513e-014 -7.20594e-016
rhumerus -38.1495 -2.87738 -86.6793
rradius 20.0374
rwrist 32.8828
rhand -7.22137 -3.63494
rfingers 7.12502
rthumb 18.6579 -32.7601
lclavicle -1.15513e-014 -7.20594e-016
lhumerus -39.9776 -8.7356 92.3394
lradius 36.548
lwrist 37.8792
lhand -19.3037 -13.506
lfingers 7.12502
lthumb 7.01201 16.3579
rfemur -14.2148 5.22109 29.6262
rtibia 25.0319
rfoot -24.409 7.28362
rtoes -9.59621
lfemur -47.2054 0.567505 -12.0928
ltibia 52.8629
lfoot -12.8705 -2.62239
ltoes -33.1512
